<svg width="51" height="50" viewBox="0 0 51 50" fill="none" xmlns="http://www.w3.org/2000/svg">
<path d="M46.837 10.5929H40.9846V10.4246C40.9846 7.39721 38.5217 4.93432 35.4943 4.93432C32.467 4.93432 30.0041 7.39721 30.0041 10.4246V10.5929H23.131C20.8679 10.5929 19.0268 12.4341 19.0268 14.6971V19.3341H12.8716C11.4032 19.3341 10.0981 20.2135 9.54659 21.5745C9.53858 21.5944 9.53116 21.6146 9.52433 21.635L5.97345 32.3908C5.94122 32.4099 5.90011 32.4326 5.84894 32.4581C5.64591 32.5595 5.26612 32.714 4.61261 32.8737C3.57556 33.1249 2.6533 33.718 1.99441 34.5573C1.33551 35.3966 0.978354 36.4333 0.980478 37.5003V42.5823C0.980478 44.2838 2.36476 45.6682 4.06632 45.6682L8.41983 45.6683C8.8795 48.1301 11.0429 49.9999 13.636 49.9999C16.2291 49.9999 18.3925 48.1301 18.8523 45.6684L34.2061 45.6687C34.6658 48.1303 36.8291 49.9999 39.4222 49.9999C42.0151 49.9999 44.1784 48.1304 44.6383 45.6688L47.403 45.6689C49.5193 45.6689 50.9412 44.2469 50.9412 42.1307V16.7333C50.9412 11.1913 48.071 10.5929 46.837 10.5929ZM31.9572 10.4246C31.9572 8.47416 33.544 6.88744 35.4943 6.88744C37.4447 6.88744 39.0315 8.47416 39.0315 10.4246V10.5929H31.9572V10.4246ZM11.3678 22.2816C11.4926 21.9861 11.7018 21.7341 11.9694 21.5572C12.2369 21.3803 12.5508 21.2864 12.8715 21.2872H19.0267V32.3555H8.0419L11.3678 22.2816ZM13.636 48.0468C11.7863 48.0468 10.2815 46.542 10.2815 44.6922C10.2815 44.6694 10.2827 44.6468 10.2832 44.624C10.2839 44.5891 10.2841 44.5541 10.2858 44.5195C10.2861 44.514 10.2868 44.5086 10.2871 44.5032C10.3856 42.7412 11.85 41.3376 13.636 41.3376C15.2523 41.3376 16.6052 42.4868 16.9209 44.0108L16.9223 44.0166C16.9329 44.0683 16.9421 44.1205 16.9503 44.173L16.9519 44.1817C16.9577 44.2199 16.962 44.2584 16.9665 44.297C16.9686 44.3146 16.9714 44.3319 16.9732 44.3495C16.9762 44.3795 16.9778 44.4101 16.9801 44.4404C16.982 44.4668 16.9848 44.493 16.9861 44.5196C16.9875 44.5469 16.9875 44.5747 16.9882 44.6022C16.989 44.6322 16.9904 44.662 16.9904 44.6921C16.9906 46.542 15.4858 48.0468 13.636 48.0468ZM39.4222 48.0468C37.5725 48.0468 36.0676 46.542 36.0676 44.6922C36.0676 44.6486 36.0692 44.6052 36.0709 44.562C36.0714 44.548 36.0713 44.5337 36.072 44.5199C36.0736 44.4876 36.0768 44.4559 36.0793 44.424C36.0813 44.3993 36.0824 44.3743 36.085 44.3497C36.086 44.3392 36.0878 44.3289 36.0889 44.3186C36.1002 44.2166 36.1155 44.1159 36.1358 44.0169C36.1364 44.014 36.1372 44.0112 36.1379 44.0082C36.4546 42.4855 37.8067 41.3377 39.4222 41.3377C39.8846 41.3377 40.3255 41.4318 40.7267 41.6018C41.9303 42.1118 42.7767 43.305 42.7767 44.6923C42.7767 46.542 41.2719 48.0468 39.4222 48.0468ZM47.403 43.7157L44.6399 43.7156C44.6366 43.6983 44.6324 43.6813 44.629 43.664C44.606 43.5492 44.5795 43.4352 44.5496 43.322C44.5363 43.2725 44.5223 43.2232 44.5075 43.1742C44.4983 43.1437 44.4894 43.1131 44.4798 43.0829C44.4634 43.0318 44.4462 42.981 44.4281 42.9305C44.4186 42.9035 44.4095 42.8761 44.3994 42.8493C44.3776 42.791 44.3548 42.7332 44.3309 42.6758C44.3234 42.6577 44.3165 42.6391 44.3088 42.621C44.2765 42.5452 44.2425 42.4701 44.2068 42.3958C44.2024 42.3866 44.1975 42.3777 44.193 42.3685C44.1618 42.3047 44.1294 42.2414 44.0957 42.1788C44.0833 42.1559 44.0701 42.1335 44.0574 42.1108C44.0306 42.0625 44.0031 42.0146 43.9747 41.9671C43.9593 41.9414 43.9433 41.9163 43.9274 41.8908C43.8838 41.8205 43.8385 41.7513 43.7913 41.6834C43.745 41.6163 43.6971 41.5501 43.6478 41.4851C43.617 41.4448 43.5856 41.4048 43.5536 41.3654C43.5346 41.3418 43.5158 41.3182 43.4964 41.295C43.4616 41.2536 43.4262 41.2127 43.3902 41.1724C43.3725 41.1525 43.3552 41.1321 43.3371 41.1124C43.2923 41.0636 43.2466 41.0157 43.1999 40.9686C43.1899 40.9584 43.1803 40.9478 43.1701 40.9377C43.1126 40.8803 43.0537 40.8241 42.9936 40.7694C42.9808 40.7577 42.9674 40.7466 42.9544 40.735C42.9073 40.6929 42.8597 40.6512 42.811 40.6108C42.7898 40.593 42.7678 40.576 42.7462 40.5586C42.705 40.5253 42.6634 40.4926 42.6213 40.4604C42.5965 40.4416 42.5714 40.4234 42.5463 40.4051C42.4402 40.3273 42.3311 40.2536 42.2192 40.1841C42.1919 40.167 42.1645 40.1501 42.1367 40.1335C42.0935 40.1077 42.0497 40.0828 42.0057 40.0582C41.9786 40.043 41.9517 40.0276 41.9243 40.0129C41.8765 39.9873 41.8279 39.9627 41.7792 39.9385C41.755 39.9264 41.7311 39.9138 41.7066 39.9022C41.6428 39.8717 41.5784 39.8425 41.5134 39.8147C41.5034 39.8104 41.4937 39.8056 41.4836 39.8013C41.408 39.7694 41.3317 39.7392 41.2547 39.7109C41.2327 39.7028 41.2104 39.6956 41.1882 39.6878C41.1329 39.6683 41.0775 39.6491 41.0215 39.6313C40.9921 39.622 40.9624 39.6136 40.9328 39.6048C40.8831 39.5901 40.8333 39.5755 40.783 39.5621C40.7508 39.5536 40.7184 39.5457 40.6858 39.5377C40.6038 39.5175 40.5212 39.4993 40.4383 39.4832C40.3891 39.4736 40.3398 39.4648 40.2904 39.4567C40.2565 39.4511 40.2227 39.4455 40.1886 39.4406C40.1372 39.4333 40.0857 39.4267 40.0342 39.4209C40.0015 39.4171 39.9689 39.413 39.9359 39.4099C39.8788 39.4047 39.8216 39.4003 39.7644 39.3968C39.7363 39.3951 39.7086 39.3925 39.6805 39.3912C39.5944 39.3869 39.5082 39.3847 39.4221 39.3846C39.3355 39.3846 39.2493 39.3871 39.1637 39.3912C39.1356 39.3925 39.1077 39.3951 39.0797 39.3968C39.0224 39.4005 38.9651 39.4044 38.9083 39.4099C38.8753 39.4131 38.8427 39.4172 38.8099 39.421C38.7583 39.427 38.7068 39.4332 38.6558 39.4407C38.6216 39.4456 38.5875 39.4512 38.5535 39.4569C38.4701 39.4707 38.387 39.4865 38.3043 39.5041C38.2557 39.5146 38.2072 39.5258 38.1589 39.5377C38.1261 39.5457 38.0934 39.5538 38.0608 39.5623C38.011 39.5755 37.9617 39.5899 37.9125 39.6045C37.8824 39.6135 37.8522 39.622 37.8223 39.6315C37.7675 39.649 37.713 39.6675 37.6589 39.6869C37.6357 39.6951 37.6121 39.7026 37.589 39.7112C37.5122 39.7395 37.4362 39.7694 37.3612 39.8011C37.3488 39.8064 37.3367 39.8123 37.3243 39.8176C37.2617 39.8447 37.1996 39.8725 37.1383 39.9018C37.1124 39.9142 37.0871 39.9275 37.0614 39.9403C37.0144 39.9638 36.9673 39.9874 36.921 40.0123C36.8924 40.0276 36.8642 40.0437 36.8358 40.0596C36.7932 40.0834 36.7509 40.1078 36.7089 40.1327C36.6102 40.192 36.5133 40.2542 36.4183 40.3194C36.3788 40.3467 36.3397 40.3745 36.301 40.4029C36.2743 40.4223 36.2476 40.4416 36.2213 40.4616C36.1812 40.492 36.1418 40.5234 36.1025 40.5549C36.0789 40.574 36.055 40.5925 36.0316 40.612C35.9865 40.6496 35.9424 40.6883 35.8985 40.7273C35.8822 40.7417 35.8655 40.7557 35.8494 40.7704C35.7902 40.8243 35.7321 40.8796 35.6754 40.9363C35.661 40.9505 35.6475 40.9656 35.6332 40.98C35.5911 41.023 35.5493 41.0663 35.5086 41.1107C35.4883 41.133 35.4687 41.1558 35.4487 41.1784C35.4152 41.2162 35.3819 41.254 35.3495 41.2928C35.3284 41.3181 35.3079 41.3438 35.2873 41.3695C35.2572 41.4068 35.2275 41.4443 35.1984 41.4824C35.1287 41.5742 35.0618 41.6681 34.998 41.7641C34.9713 41.8041 34.9455 41.8448 34.92 41.8856C34.9025 41.9135 34.8849 41.9414 34.868 41.9696C34.8416 42.0134 34.8164 42.058 34.7914 42.1027C34.7768 42.1288 34.7616 42.1545 34.7474 42.181C34.7173 42.2367 34.6887 42.2933 34.6607 42.3501C34.6527 42.3662 34.6442 42.3817 34.6365 42.3978C34.6014 42.4708 34.568 42.5446 34.5362 42.6192C34.5266 42.6419 34.5179 42.6652 34.5085 42.6881C34.4869 42.7408 34.4656 42.7936 34.4457 42.8471C34.4346 42.877 34.4245 42.9073 34.4139 42.9373C34.397 42.9847 34.3809 43.0324 34.3653 43.0803C34.3549 43.1129 34.3452 43.1459 34.3354 43.1789C34.3114 43.2591 34.2893 43.34 34.2692 43.4213C34.2576 43.4683 34.2468 43.5156 34.2364 43.5631C34.2289 43.5976 34.2215 43.6321 34.2147 43.6667C34.2114 43.6831 34.2074 43.6993 34.2044 43.7157L18.8534 43.7154C18.8502 43.6985 18.8462 43.6818 18.8429 43.6649C18.8363 43.6315 18.8291 43.5984 18.822 43.5653C18.7936 43.4345 18.7603 43.305 18.7219 43.1768C18.7124 43.145 18.7029 43.1131 18.6929 43.0815C18.6771 43.0325 18.6605 42.9837 18.6433 42.9351C18.633 42.906 18.6232 42.8767 18.6124 42.8478C18.592 42.7935 18.5707 42.7395 18.5484 42.686C18.5395 42.6639 18.5311 42.6414 18.5217 42.6196C18.4899 42.5448 18.4564 42.4708 18.4211 42.3976C18.414 42.3829 18.4062 42.3686 18.3989 42.3539C18.3704 42.2956 18.3408 42.2379 18.3101 42.1807C18.2962 42.1549 18.2814 42.1296 18.267 42.1041C18.2416 42.0589 18.2161 42.0138 18.1895 41.9695C18.1727 41.9415 18.1552 41.914 18.1379 41.8864C18.1123 41.8453 18.0862 41.8045 18.0595 41.7641C17.9956 41.6683 17.9287 41.5744 17.8591 41.4827C17.8301 41.4446 17.8004 41.4071 17.7703 41.3699C17.7496 41.3442 17.729 41.3183 17.7079 41.293C17.6755 41.2546 17.6425 41.2165 17.6091 41.179C17.589 41.1563 17.5692 41.1332 17.5488 41.1109C17.5086 41.0669 17.4672 41.0241 17.4255 40.9815C17.4108 40.9665 17.3969 40.9511 17.382 40.9365C17.3254 40.8799 17.2675 40.8247 17.2083 40.7708C17.1919 40.7558 17.1747 40.7416 17.1581 40.7268C17.1147 40.688 17.0707 40.6498 17.0261 40.6124C17.0025 40.5928 16.9782 40.574 16.9543 40.5547C16.9154 40.5235 16.8764 40.4923 16.8365 40.4621C16.8101 40.442 16.7831 40.4226 16.7563 40.403C16.7177 40.3748 16.6788 40.3471 16.6396 40.3199C16.5724 40.2737 16.5041 40.2291 16.435 40.186C16.4063 40.168 16.3774 40.1503 16.3483 40.1329C16.3066 40.108 16.2646 40.0838 16.2222 40.0602C16.1937 40.0442 16.1652 40.028 16.1363 40.0125C16.0902 39.988 16.0438 39.9642 15.997 39.9411C15.971 39.9281 15.9453 39.9146 15.9191 39.902C15.8584 39.8732 15.7973 39.8455 15.7357 39.8189C15.7225 39.8131 15.7096 39.8069 15.6963 39.8012C15.6212 39.7695 15.5453 39.7396 15.4689 39.7114C15.4453 39.7027 15.4214 39.6951 15.3977 39.6867C15.3439 39.6675 15.2899 39.6491 15.2356 39.6317C15.2055 39.6221 15.1749 39.6135 15.1445 39.6045C15.0956 39.5898 15.0464 39.5758 14.997 39.5625C14.9643 39.5539 14.9314 39.5458 14.8984 39.5378C14.7681 39.5056 14.6366 39.4786 14.5041 39.457C14.4701 39.4514 14.4361 39.4457 14.4019 39.4408C14.3506 39.4335 14.2992 39.4269 14.2477 39.4211C14.215 39.4173 14.1823 39.4132 14.1494 39.41C14.0923 39.4048 14.0351 39.4004 13.9778 39.3969C13.9498 39.3952 13.9221 39.3926 13.894 39.3912C13.8079 39.387 13.7217 39.3848 13.6356 39.3847C13.5489 39.3847 13.4629 39.3871 13.3772 39.3912C13.349 39.3926 13.3212 39.3952 13.2932 39.3969C13.2358 39.4006 13.1786 39.4045 13.1218 39.41C13.0888 39.4132 13.0561 39.4173 13.0233 39.4211C12.9719 39.4269 12.9205 39.4335 12.8693 39.4408C12.835 39.4457 12.8009 39.4514 12.7668 39.457C12.6834 39.4707 12.6003 39.4864 12.5177 39.5041C12.4692 39.5146 12.4211 39.5258 12.3731 39.5376C12.34 39.5457 12.3067 39.5539 12.2739 39.5625C12.2249 39.5757 12.1761 39.5896 12.1275 39.6042C12.0968 39.6133 12.0659 39.6221 12.0355 39.6317C11.9817 39.6487 11.9286 39.6672 11.8756 39.6859C11.8511 39.6945 11.8264 39.7024 11.8021 39.7114C11.7257 39.7396 11.6501 39.7693 11.5755 39.8008C11.5604 39.8073 11.5456 39.8144 11.5306 39.8209C11.4709 39.8468 11.4115 39.8734 11.3529 39.9014C11.3256 39.9145 11.2988 39.9286 11.2717 39.9421C11.226 39.9647 11.1807 39.988 11.1358 40.0119C11.1061 40.0278 11.0769 40.0445 11.0475 40.061C11.0061 40.0842 10.9648 40.1077 10.924 40.1321C10.8544 40.1738 10.7856 40.217 10.7179 40.2618C10.6886 40.2811 10.6595 40.3006 10.6306 40.3205C10.5923 40.3469 10.5546 40.374 10.517 40.4013C10.4892 40.4216 10.4611 40.4418 10.4337 40.4627C10.3953 40.4919 10.3576 40.5219 10.32 40.5521C10.2947 40.5724 10.2692 40.5922 10.2443 40.613C10.2021 40.6482 10.1608 40.6845 10.1197 40.7209C10.1006 40.7378 10.0811 40.7542 10.0621 40.7714C10.0036 40.8248 9.94627 40.8795 9.89015 40.9354C9.87276 40.9528 9.85616 40.9709 9.83897 40.9885C9.80001 41.0285 9.76124 41.0685 9.72354 41.1096C9.70157 41.1335 9.68048 41.1582 9.65899 41.1826C9.62716 41.2186 9.59542 41.2546 9.56466 41.2915C9.54239 41.3181 9.52071 41.3453 9.49903 41.3723C9.47015 41.4081 9.44173 41.4443 9.41378 41.4808C9.36468 41.5454 9.31704 41.611 9.27091 41.6777C9.25063 41.7068 9.23064 41.7362 9.21095 41.7658C9.18526 41.8044 9.16046 41.8436 9.13575 41.8829C9.11739 41.9122 9.09893 41.9413 9.08116 41.9709C9.05587 42.013 9.03175 42.0558 9.00763 42.0986C8.992 42.1264 8.97589 42.1539 8.96065 42.1821C8.93252 42.2347 8.90527 42.2879 8.87892 42.3414C8.86935 42.3606 8.85919 42.3793 8.84991 42.3987C8.81515 42.4709 8.78204 42.5441 8.7505 42.6181C8.73976 42.6433 8.73019 42.669 8.71983 42.6944C8.69933 42.7447 8.67891 42.795 8.65997 42.8459C8.64835 42.8771 8.6378 42.9086 8.62677 42.9401C8.61056 42.9863 8.59454 43.0325 8.5796 43.0791C8.56886 43.1126 8.5589 43.1464 8.54884 43.1802C8.53526 43.2258 8.52208 43.2715 8.50968 43.3176C8.48794 43.3984 8.46824 43.4798 8.45059 43.5616C8.44298 43.5967 8.43536 43.6318 8.42843 43.6672C8.4253 43.6832 8.4214 43.6991 8.41837 43.7151H4.06632C3.44171 43.7151 2.9336 43.207 2.9336 42.5823V37.5003C2.93229 36.8709 3.14294 36.2594 3.53159 35.7643C3.92023 35.2692 4.46426 34.9193 5.07599 34.7711C5.63253 34.6351 6.11056 34.48 6.50089 34.3087H41.9689C42.5081 34.3087 42.9454 33.8715 42.9454 33.3322C42.9454 32.7929 42.5081 32.3556 41.9689 32.3556H20.9799V14.6971C20.9799 13.5111 21.9449 12.546 23.131 12.546H46.8369C48.7086 12.546 48.988 15.1695 48.988 16.7333V42.1306C48.988 43.5098 47.9949 43.7157 47.403 43.7157Z" fill="#F1CDB3"/>
<path d="M43.031 20.6789C43.0311 19.3969 42.1306 18.3219 40.9291 18.0513C40.9356 17.9838 40.9406 17.916 40.9426 17.8474C40.965 17.0528 40.6681 16.2973 40.1069 15.72C39.5361 15.133 38.7389 14.7964 37.9196 14.7964C36.9295 14.7964 36.0478 15.2781 35.4957 16.0199C34.9441 15.2781 34.0615 14.7964 33.0693 14.7964C32.2573 14.7964 31.4656 15.1286 30.8973 15.7081C30.3329 16.2835 30.0306 17.0403 30.046 17.8387C30.0474 17.9103 30.0523 17.9811 30.0586 18.0515C28.8576 18.3225 27.9577 19.3972 27.9577 20.6789C27.9577 21.7636 28.6025 22.6999 29.5284 23.1266C28.8761 23.9338 28.4954 24.9553 28.4954 26.0353C28.4954 28.5857 30.5703 30.6606 33.1207 30.6606C33.9608 30.6606 34.7809 30.431 35.4944 30.0042C36.2117 30.4335 37.032 30.6603 37.868 30.6606C40.4184 30.6606 42.4933 28.5857 42.4933 26.0353C42.4933 24.9552 42.1126 23.9338 41.4603 23.1266C42.3864 22.6999 43.031 21.7636 43.031 20.6789ZM37.9196 16.7496C38.2146 16.7496 38.5014 16.8706 38.7066 17.0816C38.8969 17.2774 38.9976 17.5297 38.9903 17.7923C38.9734 18.391 38.488 18.8835 37.9082 18.8902C37.7529 18.89 37.5993 18.8566 37.4579 18.7921C37.4405 18.784 37.4233 18.7753 37.4057 18.7674C37.3167 18.7205 37.2353 18.6606 37.1639 18.5898C36.9599 18.3873 36.8482 18.1154 36.8493 17.8238C36.8517 17.2315 37.3319 16.7496 37.9196 16.7496ZM32.2915 17.0758C32.3927 16.9721 32.5136 16.8898 32.6472 16.8337C32.7808 16.7777 32.9243 16.749 33.0692 16.7495C33.6586 16.7495 34.1387 17.2302 34.1394 17.8209C34.1401 17.9649 34.1119 18.1076 34.0565 18.2404C34.0011 18.3733 33.9196 18.4937 33.8168 18.5946C33.747 18.6633 33.6678 18.7217 33.5816 18.7681C33.5496 18.7825 33.5185 18.7981 33.4869 18.8132C33.3596 18.8658 33.223 18.892 33.0853 18.8903C32.4975 18.8806 32.0101 18.392 31.9987 17.8011C31.9934 17.5312 32.0975 17.2738 32.2915 17.0758ZM29.9109 20.679C29.9108 20.2704 30.2432 19.9381 30.6516 19.9381C31.0602 19.9381 31.3925 20.2704 31.3925 20.679C31.3925 20.7629 31.3779 20.8432 31.3521 20.9185C31.3277 20.9676 31.3041 21.0172 31.2815 21.0673C31.1508 21.2784 30.9177 21.4198 30.6517 21.4198C30.2432 21.4198 29.9109 21.0875 29.9109 20.679ZM37.868 28.7076C37.2305 28.7074 36.614 28.4791 36.1301 28.0641C35.9532 27.9121 35.7276 27.8286 35.4944 27.8288C35.2611 27.8287 35.0356 27.9121 34.8586 28.0641C34.3747 28.4791 33.7583 28.7074 33.1207 28.7076C31.6473 28.7076 30.4486 27.5089 30.4486 26.0355C30.4486 24.9186 31.1528 23.9099 32.2008 23.5256C32.3727 23.4626 32.5234 23.3525 32.6358 23.2079C32.7481 23.0633 32.8176 22.8901 32.8362 22.7079C32.8635 22.4394 32.9314 22.1765 33.0373 21.9282C33.0721 21.8621 33.1047 21.7948 33.134 21.7256C33.3931 21.2376 33.7976 20.8423 34.2915 20.5947C34.334 20.576 34.376 20.5564 34.4176 20.5357C34.7572 20.3873 35.1238 20.3109 35.4944 20.3114C35.8761 20.3114 36.2397 20.391 36.5691 20.5348C36.6107 20.5554 36.6527 20.5749 36.6951 20.5936C37.19 20.8412 37.5953 21.2369 37.8547 21.7256C37.884 21.7948 37.9166 21.8621 37.9514 21.9282C38.0574 22.1765 38.1252 22.4394 38.1526 22.7079C38.1712 22.8901 38.2406 23.0633 38.3529 23.2079C38.4653 23.3525 38.616 23.4626 38.7879 23.5256C39.836 23.91 40.5402 24.9186 40.5402 26.0355C40.5402 27.5088 39.3414 28.7076 37.868 28.7076ZM40.3371 21.4198C40.0711 21.4198 39.838 21.2784 39.7073 21.0673C39.6847 21.0173 39.6611 20.9677 39.6367 20.9185C39.6101 20.8414 39.5964 20.7605 39.5963 20.679C39.5963 20.2704 39.9286 19.9381 40.3372 19.9381C40.7457 19.9381 41.0781 20.2704 41.0781 20.679C41.078 21.0874 40.7456 21.4198 40.3371 21.4198Z" fill="#F1CDB3"/>
<path d="M46.8495 33.1465C46.8369 33.0839 46.8183 33.0228 46.7939 32.9639C46.7696 32.9047 46.7395 32.8481 46.704 32.7949C46.6689 32.7414 46.6283 32.6917 46.583 32.6465C46.5378 32.6011 46.488 32.5606 46.4345 32.5254C46.3278 32.4547 46.2084 32.4053 46.083 32.3799C45.9573 32.3545 45.8278 32.3545 45.7021 32.3799C45.6396 32.3927 45.5781 32.4111 45.5185 32.4355C45.4599 32.46 45.4033 32.4903 45.3505 32.5254C45.2968 32.5605 45.247 32.6016 45.2021 32.6465C45.1571 32.6914 45.1161 32.7412 45.08 32.7949C45.0449 32.8477 45.0145 32.9043 44.9912 32.9639C44.9667 33.0225 44.9472 33.084 44.9355 33.1465C44.9228 33.209 44.916 33.2734 44.916 33.3369C44.916 33.4003 44.9228 33.4648 44.9355 33.5283C44.9472 33.5898 44.9667 33.6514 44.9912 33.7109C45.0156 33.7695 45.0458 33.8262 45.081 33.8789C45.1161 33.9326 45.1571 33.9824 45.2021 34.0273C45.247 34.0723 45.2968 34.1133 45.3505 34.1494C45.4033 34.1846 45.4599 34.2139 45.5185 34.2383C45.5781 34.2627 45.6396 34.2822 45.7021 34.2939C45.7647 34.3066 45.8291 34.3135 45.8925 34.3135C45.956 34.3135 46.0206 34.3066 46.083 34.2939C46.1455 34.2822 46.207 34.2627 46.2656 34.2383C46.3251 34.2139 46.3818 34.1846 46.4345 34.1494C46.4883 34.1133 46.5381 34.0723 46.583 34.0273C46.6279 33.9824 46.6689 33.9326 46.704 33.8789C46.7391 33.8262 46.7695 33.7695 46.7939 33.7109C46.8183 33.6514 46.8368 33.5898 46.8495 33.5283C46.8622 33.4648 46.869 33.4003 46.869 33.3369C46.869 33.2734 46.8622 33.209 46.8495 33.1465Z" fill="#F1CDB3"/>
<path d="M35.4944 0C34.9551 0 34.5178 0.437207 34.5178 0.976562V2.61133C34.5178 3.15068 34.9551 3.58789 35.4944 3.58789C36.0337 3.58789 36.4709 3.15059 36.4709 2.61133V0.976562C36.4709 0.437207 36.0337 0 35.4944 0Z" fill="#F1CDB3"/>
<path d="M31.3802 3.79716L30.0171 2.72695C29.9163 2.64775 29.8008 2.58919 29.6773 2.55462C29.5538 2.52006 29.4247 2.51015 29.2974 2.52548C29.17 2.5408 29.047 2.58106 28.9352 2.64394C28.8234 2.70683 28.7251 2.79111 28.6459 2.89199C28.3129 3.3162 28.3869 3.93007 28.811 4.26308L30.1741 5.33329C30.3458 5.46851 30.558 5.54196 30.7765 5.54179C30.9246 5.542 31.0708 5.50848 31.204 5.44377C31.3372 5.37907 31.4539 5.28488 31.5453 5.16835C31.8784 4.74404 31.8044 4.13017 31.3802 3.79716Z" fill="#F1CDB3"/>
<path d="M42.3428 2.89184C42.0098 2.46762 41.396 2.3937 40.9716 2.7268L39.6085 3.79702C39.1843 4.13003 39.1104 4.74389 39.4435 5.16821C39.5348 5.28481 39.6515 5.37906 39.7847 5.44378C39.9179 5.50851 40.0642 5.54201 40.2123 5.54175C40.4308 5.5419 40.643 5.46845 40.8147 5.33325L42.1778 4.26303C42.602 3.93003 42.6759 3.31616 42.3428 2.89184Z" fill="#F1CDB3"/>
</svg>
